# xmcd CD database file
#
# Track frame offsets:
#	225
#	15702
#	23611
#	32311
#	39734
#	48778
#	65417
#	79526
#	87085
#	100332
#
# Disc length: 1478 seconds
#
# Revision: 0
# Processed by: cddbd v1.5.1PL2 Copyright (c) Steve Scherf et al.
# Submitted via: CDex 1.51
#
DISCID=6705c30a
DTITLE=Various Artist - Louisiana Hayride Classic Country Radio Vol. 4
DYEAR=1900
DGENRE=Country
TTITLE0=Hank Snow - Anniversary Blue Yodel (Blue Yodel #7)
TTITLE1=Wilburn Brothers - Gonna Tie One On Tonight
TTITLE2=Webb Pierce - Slowly
TTITLE3=Faron Young - Go Back You Fool
TTITLE4=Red Foley - Foggy River
TTITLE5=Johnny Cash - Southern Maid Doughnut Commercial/Give My Love To Rose
TTITLE6=George Jones - Color Of The Blues
TTITLE7=Jim Reeves - Roly Poly
TTITLE8=Johnny Horton - One Woman Man
TTITLE9=Hawkshaw Hawkins - Pan America
EXTD=
EXTT0=
EXTT1=
EXTT2=
EXTT3=
EXTT4=
EXTT5=
EXTT6=
EXTT7=
EXTT8=
EXTT9=
PLAYORDER=
